<svg xml:space="preserve" style="enable-background:new 0 0 2265.2 715.9;" viewBox="0 0 2265.2 715.9" y="0px" x="0px" xmlns:xlink="http://www.w3.org/1999/xlink" xmlns="http://www.w3.org/2000/svg" id="Layer_1" version="1.1">
<style type="text/css">
	.st0{fill:#FFFFFF;}
	.st1{fill:#00A551;}
</style>
<g>
	<path d="M2167.5,352.6c29-97.8,57.7-201.4,62.6-220.8l1-3.9l0.3-4c2-26.1-16.4-57-61.5-62.8h-0.1c-35.7-4.6-119.1,5.5-151,51.5
		c-18.3-26-40.9-49.6-62.7-62.1c-31.1-18-65.2-19.4-93.4-3.9c-20.1,11-60.9,34.1-100.6,61.4c-11.6-23.1-27-45.7-40.5-53.5
		c-18.9-11-42.8-11.8-62.3-2c-13.1,6.6-31.3,15-52.8,25c-18.1,8.4-38.9,18.1-61.2,28.7c-2.4-6-5.1-12.4-8.6-19.9
		c-1-2.1-1.9-4.2-2.9-6.3l-6.2-18.8l-2.7,1.5c-9.8-16.6-23.2-31-46.5-35.2l-6.5-1.2l-10.6,0.2c-24.7,1.8-52,15-116.9,47.5
		c-28,14-57,28.5-81.3,39.1l-3.3,1.6c-4.4,2.2-8.6,4.3-12.7,6.4c-31.2,15.4-73.3,36.4-78.1,81.4c-3.9-1.5-7.8-2.8-11.4-4
		c-20.9-6.6-47.3-7.1-95,7c-14.3-37.8-44.6-78.5-56.6-89.1c-18.7-16.7-39.2-18.1-49.9-17.5c-2.6,0.2-12.8,0.6-28,1.3
		c-254.8,12-288.3,14.9-305,23.5l0-9.7l-59.2-1.2c-30.2-0.6-98.4,5.6-184.9,13.8c-33.6,3.2-75.3,7.1-83.7,7.3
		c-43.5,0.2-88.4,28.1-226.6,186.7c-5.3,6-9.2,10.6-11.5,13.1C-2.2,398,42.1,454.7,77.6,500.3l6.8,8.7
		c16.3,21,113.6,109.5,173,126.8c2.3,0.7,4.6,1.3,6.8,1.7l5.9,1.1l5.8,0.1c54.6,0.9,213.8-16.3,377.7-35.2
		c22.6-2.6,40.2-4.6,50.4-5.7l60.1-6.5l-8.2-54c-0.2-1.3-0.6-2.7-0.9-4.1c10.1,10.6,20.2,20.9,30.1,30.5l22.2,21.6l32-4.7
		c23.3-3.4,70.5-20.9,84.5-26.3c45.2-17.2,71.7-29.4,83.7-49.2c16,8.4,30.6,15.2,43.9,19.9c-0.9,4.3-1.6,8.7-1.8,13.2
		c-0.7,21.2,7.8,40.8,23.6,54.8l74.3,83.3l46.6-32.3c7.7-5.2,45.9-25.2,79.9-43.1c4.8-2.5,9.6-5,14.4-7.6
		c13.8,18.5,41.1,40.9,94,69.8l35.3,19.4l32.7-22.6c1.6-1.1,112.8-78.9,205.6-148.2c-1.9,20.5,6.8,35.2,13,42.9
		c12.7,15.4,31,24,49.2,29.3c8.2,2.4,16.4,4.1,24,5.5c38.6,7,91.1,8.7,128.4,9c73.5,0.5,153.3-4.1,185.6-10.6l3.2-0.7l8.2-2.8
		C2095.5,573,2103,570,2167.5,352.6L2167.5,352.6z M274.7,387.2c2.8-3.5,6-7.5,9.7-12.2c11.8-14.8,40.4-50.8,56-66.6
		c16.7-1.1,44.6-1.9,63.2-2.4c8.6-0.2,16.4-0.5,23.9-0.7c-41.1,41.2-104.2,105.3-115.3,121.2l-2.1,3
		C296.5,414.9,282.8,399,274.7,387.2L274.7,387.2z M630,415.7c-6.3,0-14,0.8-27,2.8c6.2-6.6,12.3-13.2,18.5-19.9
		c2-2.2,4.2-4.5,6.5-6.9c8.1,9.1,16.4,18.6,23.9,27.1C644.7,416.8,637.3,415.7,630,415.7z"></path>
	<path d="M1417.7,686.7l-37.1-20.4c-46.4-25.4-76.9-47.9-93.3-68.5c-2.8,1.5-5.6,2.9-8.4,4.4l-3.6,1.9
		c-32,16.8-71.9,37.7-79.6,42.9l-48.9,34l-76.1-85.3c-16.6-14.8-25.3-35.2-24.6-57.2c0.1-3.4,0.5-7,1.3-11c-11.2-4.1-24-10-39-17.8
		c-12.6,18.4-37.5,30.4-83.7,48c-14,5.3-61.5,23-85.2,26.4l-33.6,4.9l-23.3-22.7c-7-6.8-14.5-14.3-22.7-22.9l7.7,51l-63.5,6.8
		c-10.4,1.1-28.9,3.2-50.4,5.7c-164,18.8-323.3,36.1-378.1,35.2l-6.3-0.2l-5.9-1.1c-2.3-0.5-4.6-1-7.1-1.8
		C195.7,621.2,97.8,531.6,81.8,510.9l-6.8-8.7c-17.9-22.9-38.1-48.8-46.4-77.4c-9.7-33.4-1.3-64.1,25.8-93.7
		c2.1-2.3,5.8-6.6,10.5-11.9l0.9-1c139-159.4,184.6-187.6,229.1-187.8c8.3-0.1,51.7-4.3,83.4-7.3c86.4-8.2,154.9-14.4,185.3-13.8
		l62.4,1.2l0,8c20.3-7.5,70.4-10.8,301.6-21.8c12.8-0.6,25.1-1.2,27.9-1.3c11.1-0.6,32.7,0.9,52.3,18.3
		c11.5,10.2,41.4,49.8,56.4,87.5c41.6-12,69.8-13.8,94-6.1c2.3,0.7,4.8,1.6,7.7,2.6c7-44,48.7-64.7,79.4-79.9
		c4.9-2.4,8.9-4.4,12.7-6.4l3.4-1.6c24.4-10.6,53.3-25.1,81.3-39c65.3-32.7,92.8-46,118.2-47.8l0.2,0l10.9-0.2l6.8,1.3
		c25.3,4.6,38.9,21,47.1,34.1v0l3.4-1.9l7.4,22.3c0.6,1.3,1.2,2.5,1.7,3.8l1.1,2.4c2.7,5.8,5.1,11.3,7.4,16.9
		c21.5-10.2,41.3-19.5,58.1-27.2l0.4-0.2c21.1-9.8,39.4-18.3,52.4-24.8c20.4-10.2,45.5-9.4,65.4,2.1c12.1,7,27,26.1,40.1,51.5
		c38.9-26.4,77.8-48.5,97.8-59.4c29.3-16,64.5-14.6,96.6,4c19.8,11.4,41.9,33,61.1,59.4c34.3-44,114.4-53.9,151.1-49.2l0.3,0
		c47.2,6.2,66.5,38.7,64.4,66.3l-0.4,4.5l-1,3.9c-4.9,19.4-33.6,123-62.6,220.9l0,0c-64.9,218.9-72.8,222.1-101.9,234l-0.2,0.1
		l-8.6,2.9l-3.2,0.7c-32.5,6.6-112.6,11.2-186.3,10.7c-37.4-0.2-90.1-2-128.9-9c-9.4-1.7-17.1-3.5-24.3-5.5
		c-22.9-6.6-39.5-16.6-50.8-30.3c-5.4-6.5-13.7-19.7-14-38.2c-91.8,68.3-199.2,143.4-200.2,144.2L1417.7,686.7z M1289.2,589.3
		l1.7,2.2c15.3,20.5,45.7,43,92.9,68.9l33.6,18.5l31.1-21.5c1-0.7,112.7-78.8,205.5-148.1l5.9-4.4l-0.7,7.3
		c-1.8,19.9,6.9,33.9,12.3,40.5c10.4,12.7,26,21.9,47.6,28.2c7,2,14.5,3.7,23.6,5.4c38.4,6.9,90.7,8.7,127.8,8.9
		c73.4,0.5,152.9-4.1,184.9-10.6l3-0.6l8-2.7c26.7-10.9,34-14.1,98-229.7l0,0c29-97.8,57.7-201.3,62.6-220.7l0.9-3.6l0.3-3.7
		c1.9-24.6-15.6-53.6-58.5-59.3l-0.3,0c-35.1-4.5-117.2,5.8-147.8,50.2l-2.7,3.9l-2.7-3.8c-19.2-27.4-41.7-49.6-61.6-61.2
		c-30.1-17.4-63-18.8-90.2-3.9c-20.4,11.2-60.6,34-100.3,61.2l-3.1,2.1l-1.7-3.4c-13-26-27.7-45.4-39.2-52.1
		c-18-10.4-40.7-11.2-59.2-1.9c-13.1,6.5-31.4,15-52.6,24.9l-0.4,0.2c-17.5,8.1-38.5,17.9-61.1,28.7l-3.1,1.5l-1.3-3.2
		c-2.6-6.5-5.4-13-8.5-19.8l-1.1-2.4c-0.6-1.3-1.2-2.6-1.8-3.9l-0.1-0.4l-5-15.1l-2.1,1.1l-1.6-2.7c-11.7-19.9-25.4-30.3-44.3-33.7
		l-6.2-1.2l-10.2,0.2c-24.1,1.8-51.2,14.9-115.6,47.2c-28,14-57,28.5-81.5,39.1l-3.2,1.5c-3.8,1.9-7.8,3.9-12.7,6.3
		c-30.3,15-71.7,35.5-76.3,78.8l-0.4,4.2l-3.9-1.5c-4.5-1.7-8.1-2.9-11.2-3.9c-23.4-7.4-51.3-5.3-93.1,7l-2.9,0.9l-1.1-2.8
		c-14.3-37.6-44.3-77.7-55.7-87.8c-17.8-15.9-37.5-17.3-47.6-16.7c-2.3,0.1-10.4,0.5-28,1.3C680.5,115,640.7,118,624.3,126.4
		l-4.7,2.4l0-11.9l-56-1.1c-30-0.6-98.3,5.6-184.5,13.7c-33.6,3.2-75.4,7.1-83.9,7.3c-53.3,0.2-114.8,60-224.2,185.6l-0.9,1
		c-4.9,5.6-8.5,9.7-10.6,12.1c-25.4,27.8-33.4,56.4-24.4,87.5c8,27.4,27.8,52.8,45.3,75.2l6.8,8.7
		c15.7,20.3,111.8,108.4,171.4,125.7c2.3,0.7,4.5,1.2,6.6,1.6l5.6,1.1l5.5,0.1c54.4,1,213.5-16.3,377.2-35.1
		c21.5-2.5,40-4.6,50.4-5.7l56.7-6.1l-7.7-50.6c-0.1-0.7-0.3-1.5-0.5-2.4c-0.1-0.5-0.2-1.1-0.3-1.6l-2.2-11.1l7.8,8.2
		c11.2,11.8,21.1,21.7,30,30.4l21,20.5l30.4-4.4c23-3.3,69.9-20.8,83.8-26.1c46.8-17.9,71.1-29.6,82.1-47.9l1.6-2.6l2.7,1.4
		c17,9,31.2,15.4,43.4,19.7l2.7,1l-0.6,2.8c-1.1,4.8-1.6,8.9-1.7,12.7c-0.6,20.2,7.4,38.7,22.5,52.3l0.3,0.3l72.4,81.2l44.2-30.7
		c8-5.4,48-26.4,80.2-43.3l3.6-1.9c3.6-1.9,7.2-3.8,10.8-5.7L1289.2,589.3z M310.5,434.8l-2.8-3c-9.1-9.8-25.9-28.3-35.7-42.7
		l-0.6-0.8V386l0.7-0.9c2.2-2.8,4.7-5.9,7.5-9.4l2.3-2.9c12.1-15.2,40.4-50.8,56.1-66.6l0.9-0.9l1.2-0.1c15.9-1,41-1.8,63.3-2.4
		c8.2-0.2,15.7-0.5,22.8-0.7l9.3-0.3l-5.8,5.8C391.7,345.8,326,412.4,314.9,428.4L310.5,434.8z M278.8,387.3
		c6.8,9.6,17.7,22.6,31,37c10.9-15.4,64.3-70,109.6-115.5c-5,0.2-10.1,0.3-15.6,0.5c-15.7,0.5-44.5,1.3-61.8,2.3
		c-15.6,15.9-42.9,50.3-54.7,65.2l-2.3,2.9C282.6,382.5,280.6,385,278.8,387.3z M661.6,424.9l-10.6-3c-7.2-2-14.2-3-21-3h0
		c-6.2,0-13.6,0.8-26.5,2.7l-9.3,1.4l6.4-6.9c6.2-6.6,12.3-13.2,18.5-19.8c1.5-1.6,3.1-3.3,4.7-5l4.2-4.6l2.4,2.7
		c7.8,8.7,15.9,18,23,26.1L661.6,424.9z M627.9,396.5c-1.4,1.5-2.7,2.9-4,4.3c-4.1,4.4-8.1,8.7-12.2,13.1c7.9-1,13.4-1.5,18.3-1.5
		l0,0c4.2,0,8.5,0.3,12.8,1C638,408,632.9,402.2,627.9,396.5z" class="st0"></path>
</g>
<g>
	<g>
		<path d="M853.2,348c-40.4-28.6-96.6-67.7-112.2-77.6c8.6-1.3,31.6-2.4,54-3.5c31.4-1.6,70.5-3.5,101.4-6.9l0.6-0.1
			c37.4-14.3,101.5-49.7,122-64.5l0.7-0.5l0.1-0.8c1.1-19.9-35.3-76.9-47-87.3c-1.9-1.7-3.4-2.5-4.8-2.4c-2.7,0.2-13.2,0.7-28.9,1.4
			c-191.8,9.1-275.9,14.4-281,17.7C633.9,136.2,385,385.4,369.3,408l-1.6,2.3l3,0.6c0.6,0.1,1.2,0.2,1.8,0.3
			c24.7,4.5,88,6.7,124.4-4.8l0.7-0.4c21.4-17,56.2-54.4,86.9-87.5c22.9-24.7,46.7-50.2,50.8-51.6c0.1,0,0.1,0,0.2,0
			c6.5,1.2,41,40.6,74.4,78.6c37.4,42.7,84,95.9,125.5,136.4l0.8,0.8l1.1-0.2c22.1-3.2,125.3-40.9,127.1-50.1
			C964.7,430.8,965.3,427.4,853.2,348L853.2,348z M711.3,176.9c10.3-10.2,16.1-16,17.5-18.1c3.5-5.2,44.9-5.8,78.3-6.3
			c32.9-0.5,67-1,85.1-4.9c0.8-0.2,1.7-0.2,2.7,0c2.1,0.4,4.7,1.6,7.6,3.5c11,7.3,22.1,22.1,23.2,25.5c-4.9,4.5-32.5,19.7-56.6,27.4
			c-10.4,2.3-60.2,4.7-108.4,7.1c-32.3,1.6-65.6,3.2-85.8,4.7C679.1,208.8,699.7,188.4,711.3,176.9L711.3,176.9z" class="st1"></path>
		<path d="M834.5,487.7l-2.4-2.3c-41.6-40.6-88.2-93.9-125.7-136.7l-0.2-0.2c-26-29.7-61.2-69.9-70.6-76.3
			c-7,5.6-30.3,30.7-47.7,49.4l-0.2,0.2c-30.8,33.1-65.7,70.7-87.5,87.9L500,410l-1.4,0.8l-0.4,0.1c-37.2,11.8-101.2,9.5-126.6,4.9
			l-0.7-0.1c-0.4-0.1-0.8-0.1-1.2-0.2l-9.8-2l5.6-8c15.7-22.7,266-273.1,290.4-286l0,0c5.5-2.9,35.3-6.6,282.9-18.3
			c15.2-0.7,26.1-1.2,28.8-1.4c3.5-0.2,6.2,1.8,8.2,3.5c6.4,5.7,18.7,23,29.2,41.2c7.5,13,20,36.8,19.3,49.8l-0.2,3l-2.5,1.8
			c-20.6,14.9-85.3,50.6-123,65l-0.6,0.2l-1.1,0.2c-31.1,3.4-70.2,5.3-101.7,6.9l-0.4,0c-14.7,0.7-29.7,1.5-40.6,2.3
			c22.6,15.2,66.6,45.8,101.5,70.6l0.4,0.3c48.4,34.3,81.2,58.3,97.6,71.3c14,11.2,15.8,13.8,15,17.7c-0.6,2.9-1.8,8.9-58.8,30.7
			c-26.5,10.1-59.8,21.3-72.1,23.1L834.5,487.7z M636.8,262.7c7.3,2.1,26,22.3,76.3,79.8l0.2,0.2c37.1,42.4,83.3,95,124.4,135.3
			c24.4-4.1,108.4-36.1,121.2-45.9c-5.7-5.9-30.3-25.2-108.3-80.4l-0.4-0.3c-41.9-29.7-96.7-67.7-111.6-77.2l-10.4-6.6l12.1-1.8
			c8.7-1.3,31.8-2.5,54.1-3.6l0.4,0c31.3-1.6,70.2-3.5,100.9-6.8l0,0c36.5-14,98.3-48,119.6-63c-0.3-8.1-7-24.1-18.1-43.4
			c-10.9-18.8-22.4-34.6-27.3-38.9c-1-0.9-1.5-1.1-1.7-1.2c-3,0.2-13.9,0.7-28.8,1.4c-114.6,5.4-268,13.1-279,17.2l-0.1,0.1
			c-10,5.2-67.5,59.3-146.5,137.7c-66,65.6-123.7,124.9-138,141.9c25.3,4,85,5.7,119.2-4.9c21.3-17,55.7-54,86.1-86.7l0.2-0.2
			c36.1-38.8,48-51.1,52.5-52.6l0.7-0.3h0.8C635.8,262.4,636.3,262.5,636.8,262.7z M960.2,430.9
			C960.2,430.9,960.2,430.9,960.2,430.9C960.2,430.9,960.2,430.9,960.2,430.9z M660.6,127.3L660.6,127.3
			C660.6,127.4,660.6,127.3,660.6,127.3z M666,221.1l4.9-7.7c4.3-6.9,21.5-24.1,37.3-39.7l7.2-7.2c4.8-4.8,8.9-9,9.7-10.2
			c3.8-5.8,19.9-7.5,82-8.4c32.8-0.5,66.6-1,84.2-4.8c1.4-0.3,2.9-0.3,4.5,0c2.7,0.5,5.8,1.8,9.3,4.1c11.7,7.7,23.5,23.2,25,28
			l0.9,2.8l-2.2,2c-5.7,5.2-34.2,20.7-58.3,28.4l-0.4,0.1c-10.8,2.4-58.5,4.7-109.1,7.2c-32.3,1.6-65.6,3.2-85.8,4.7L666,221.1z
			 M709.6,185.1c-7.7,7.7-18,18-24.7,25.4c20.3-1.3,48.2-2.7,75.4-4c45.5-2.2,97-4.7,107.5-6.9c20.8-6.6,43.5-18.8,51.9-24.3
			c-3.4-5-11.5-14.9-19.7-20.4c-3.1-2.1-5-2.6-5.9-2.8c-0.6-0.1-0.9-0.1-0.9-0.1c-18.5,3.9-52.7,4.5-85.9,4.9
			c-24.1,0.4-68.6,1-74.9,4.7c-1.8,2.5-6.8,7.5-17.8,18.4L709.6,185.1z M732.2,161.9L732.2,161.9L732.2,161.9z M732.7,161.4
			C732.7,161.4,732.7,161.4,732.7,161.4C732.7,161.4,732.7,161.4,732.7,161.4z" class="st0"></path>
	</g>
	<g>
		<path d="M1692.5,246.9c-32.4-21.2-70.5-42.8-90.4-53.8c-2.3-1.9-4.6-3.6-6.7-5.1c-4.3-3.1-8-5.8-8.3-8.5
			c-0.1-1.6,0.9-3.4,3.1-5.5c10.8-4.7,36.3-15.4,63.2-26.8c51-21.6,76.6-32.9,76.6-33.8c0.5-6.6-26.2-58.4-31.7-61.5
			c-1.2-0.7-2.3-0.3-2.7-0.1c-13.9,7-32.5,15.6-54,25.5c-30.1,14-67.6,31.3-106.9,51.1c-3.6,1.8-7.3,3.6-10.9,5.4
			c-24.8,12.2-44.5,21.8-42.6,31.1c3.3,15.9,54.8,49.8,104.5,82.6c36.4,24,70.9,46.7,79.3,57.9c-26.5,31.6-208.5,133.9-286.7,177.8
			c-15.2,8.5-27.1,15.2-33.5,18.9c-3,1.8-4.6,4.3-4.5,7.3c0.4,19.3,71.4,58.8,79.5,63.2l1.3,0.7l1.2-0.8
			c50-34.8,248.6-175.6,306.2-227.5c10.3-9.3,17.1-28.9,20.3-38.4c0.7-2,1.2-3.5,1.6-4.3C1752.8,296.4,1749.7,284.3,1692.5,246.9
			L1692.5,246.9z" class="st1"></path>
		<path d="M1421.3,578.6l-3.7-2.1c-3.8-2.1-23.8-13.2-43-26.2c-34.5-23.6-38.7-34.6-38.8-40.9
			c-0.1-4.7,2.3-8.8,6.8-11.4c6.4-3.7,18.4-10.4,33.5-19l0.2-0.1c75.3-42.3,248.8-139.8,282.6-173.8c-11.2-11.5-43.9-33-75.6-53.9
			c-64-42.2-103.2-69-106.6-85.6c-2.6-12.7,16.3-22,44.9-36.1c3.7-1.8,7.3-3.6,10.9-5.4c39.4-19.7,76.8-37.1,106.9-51.1l1.8-0.8
			c20.8-9.6,38.7-18,52.2-24.7c2.2-1.1,4.8-1,7,0.3c4.4,2.5,13.3,18.4,19.9,31.4c6.6,12.9,14.5,29.3,14.1,34.5c-0.2,3-2.3,4-7.4,6.4
			c-3.2,1.5-8.1,3.7-14.5,6.6c-12.7,5.6-32.1,13.9-57.5,24.7l-5.7,2.4c-23.7,10.1-46.2,19.6-56.6,24.1c-0.6,0.6-0.9,1-1,1.3
			c0.9,1.3,4.1,3.5,6.2,5.1c1.9,1.4,4.3,3.1,6.7,5c20.1,11.1,58.1,32.7,90.3,53.8l3.4,2.2l0,0c52.6,34.8,60.6,48.7,56.1,58.7
			c-0.2,0.5-0.6,1.7-1.1,3l-0.3,1c-3.4,9.8-10.4,30.2-21.6,40.3c-57.8,52.1-256.5,193-306.6,227.9L1421.3,578.6z M1696.4,56.3
			c-13.4,6.7-31,14.8-51.3,24.2l-1.8,0.8c-30,13.9-67.4,31.3-106.6,50.9c-3.6,1.8-7.3,3.6-10.9,5.4c-17.5,8.6-41.3,20.2-40.1,26.1
			c2.9,14,58.2,50.5,102.6,79.7c38.4,25.3,71.6,47.2,80.4,58.9l2.2,2.9l-2.3,2.8c-27,32.2-209.7,134.9-287.7,178.7l-0.2,0.1
			c-15.1,8.5-27.1,15.2-33.4,18.9c-2.3,1.3-2.3,2.7-2.2,3.2c0.2,8.5,26.3,31.3,75.9,58.6c51.8-36.1,247.6-175,304.5-226.4
			c9.4-8.5,15.9-27.4,19.1-36.4l0.3-1c0.6-1.7,1-2.9,1.4-3.8c1-2.3,0.1-12.8-56.1-49.5l-3.4-2.2l0,0c-31.5-20.4-67.6-40.8-86.8-51.5
			l-0.4-0.2l-0.3-0.3c-2.2-1.9-4.6-3.6-6.5-4.9c-5.2-3.8-9.8-7-10.2-11.8c-0.3-3,1.2-6,4.4-9.2l0.6-0.6l0.8-0.3
			c10.1-4.4,33.1-14.1,57.5-24.4l5.7-2.4c50.6-21.4,67.8-29.2,73.4-31.9C1721.5,100.1,1702.3,63.1,1696.4,56.3z" class="st0"></path>
	</g>
	<g>
		<path d="M1522.1,351.9c10.3-9.3,17.1-29,20.4-38.4c0.7-2,1.2-3.5,1.5-4.3c10.3-23-173.7-127.6-180.7-131.6
			c-2.3-1.9-4.6-3.6-6.7-5.1c-4.3-3.1-8-5.8-8.3-8.5c-0.1-1.6,0.9-3.4,3.1-5.5c11.5-5,42.4-18,72.3-30.6
			c57.9-24.4,73.5-30.9,77.6-33.2l0.1,0.2c2.4-0.7,2-3.3,1.9-4.2c-0.9-6.2-22.6-57.6-29.1-58.7c-0.1,0-0.1,0-0.2,0
			c-13.2,1-50.5,19.6-93.6,41.2c-28.8,14.4-58.5,29.3-84.2,40.4c-4.6,2.4-9.1,4.6-13.4,6.7c-28,13.9-48.3,23.9-49,43.2
			c-0.6,16,51.5,47.6,125.1,90.5c41.4,24.2,80.7,47,89.1,57.8c-21,24.6-140.1,78.1-227.4,117.3c-44.9,20.2-80.4,36.1-93.5,44
			c-7.2,4.3-11.8,12.3-12.1,20.9c-0.2,7.2,2.7,13.5,8,17.3l41.2,46.2l1.6-1.2c9.3-6.5,43.2-24.3,86-46.8
			C1342.9,461.8,1480.3,389.6,1522.1,351.9L1522.1,351.9z" class="st1"></path>
		<path d="M1163.6,563.5l-43.6-48.9c-6.3-4.7-9.7-12.3-9.4-20.8c0.3-10.2,5.8-19.6,14.3-24.7
			c13.3-7.9,48.6-23.8,93.3-43.9l0.9-0.4c83.2-37.4,196-88.1,222.7-113.1c-12.1-11.2-49-32.8-84.8-53.7l-0.3-0.1
			c-33.1-19.3-67.3-39.5-90.6-55.6c-26.1-18-37-29.7-36.7-39.1c0.8-22.1,23.2-33.1,51.5-47.2c3.9-1.9,8.5-4.2,13.3-6.6l0.3-0.1
			c25.6-11.1,55.3-26,84-40.3l0.1-0.1c45.3-22.6,81.1-40.5,95.2-41.6l0.6,0l0.7,0.1c2.5,0.4,6.6,1.2,20,30.1
			c5.7,12.4,12.2,28.3,12.8,32.6c0.9,7-3.7,8.9-5.2,9.3l-0.7,0.2c-5.9,2.9-22.1,9.7-73.5,31.4l-3.4,1.4c-29,12.2-59,24.9-71,30
			c-0.6,0.6-0.9,1-1,1.3c0.9,1.3,4.1,3.5,6.2,5.1c1.8,1.3,4.3,3.1,6.7,5.1c4.9,2.8,51.6,29.4,96.7,58.6
			c82.5,53.4,89.5,69.7,85.6,78.6c-0.2,0.5-0.7,1.9-1.2,3.4l-0.2,0.5c-3.4,9.9-10.4,30.2-21.6,40.3l-0.5,0.5
			c-42.8,38.2-179.7,110.1-270.5,157.8l-1.7,0.9c-41.8,22-74.9,39.3-83.9,45.6L1163.6,563.5z M1298.2,117.7
			c-4.8,2.4-9.4,4.7-13.3,6.6c-29.3,14.5-45.9,23.5-46.4,39.3c-0.1,3.2,4,11.4,32.7,31.2c23,15.9,57.1,36,90.1,55.2l0.3,0.1
			c43.6,25.4,81.2,47.4,90.1,58.8l2.3,2.9l-2.4,2.9c-21.7,25.3-136.5,77-228.8,118.5l-0.9,0.4c-44.4,20-79.5,35.7-92.3,43.4
			c-5.8,3.5-9.6,10-9.8,17.1c-0.2,5.6,2,10.5,6,13.4l0.4,0.3l38.9,43.6c11.3-7.3,43.3-24.1,83.1-45.1l1.6-0.8
			c90.8-47.7,227.9-119.7,269.2-157l0.5-0.4c9.2-8.7,15.5-27.1,18.6-36l0.2-0.6c0.7-2,1.1-3.3,1.5-4.1c0.2-0.5,3-12.1-82.8-67.6
			c-46.3-30-93.9-57-95.9-58.1l-0.4-0.2l-0.3-0.3c-2.2-1.9-4.6-3.6-6.5-4.9c-5.2-3.8-9.8-7-10.2-11.8c-0.3-3,1.2-6,4.4-9.2l0.6-0.6
			l0.8-0.3c11.5-4.9,42.2-17.9,71.9-30.4l3.4-1.4c52.3-22,69.3-29.2,73.9-31.6c-1.6-7.8-19.5-48.1-25.6-54.3
			c-13.5,2-50.9,20.7-90.5,40.5l-0.1,0.1C1353.7,91.6,1324,106.4,1298.2,117.7z M1352.8,163.3L1352.8,163.3L1352.8,163.3z
			 M1472.5,36.1L1472.5,36.1C1472.5,36.1,1472.5,36.1,1472.5,36.1z M1474.6,27.4L1474.6,27.4C1474.7,27.4,1474.7,27.4,1474.6,27.4z" class="st0"></path>
	</g>
	<g>
		<path d="M1821.9,300.8c0.4,0.2,0.9,0.3,1.6,0.5c17.1,3.1,127.6-12.9,147.7-19.3l1-0.3l0.3-0.9
			c0.8-2.4,2.4-6.1,4.3-10.5c11-26,20.2-50,13.2-56.7c-1.3-1.3-3.9-2.5-8.4-1.3c-11.1,3.1-56.4,16.7-89.4,26.5
			c-13.9,4.2-25.9,7.8-32.4,9.7c-2.9-4-12.2-16.8-15.7-21.6c17.1-7.1,40.2-14.7,62.6-22c50.5-16.5,98.2-32.1,100.1-47.9
			c2.2-17.5-36.7-87.7-73.8-109.1c-12.2-7-22.9-8.1-31.9-3.2C1832,82.5,1729.2,151.9,1725,174.8
			C1717.6,214.7,1809.5,294.7,1821.9,300.8L1821.9,300.8z M1816,163.1c7.4-3.5,23-13.9,39.5-25c21.3-14.3,45.3-30.4,54.8-33.5
			c12.7,8.9,25.4,19.2,25.1,29c-0.2,5.2-4,10-11.7,14.6c-10.2,6.2-37.7,18.8-59.8,29c-12,5.5-22.3,10.3-28.5,13.3
			c-11.1-1.8-20.7-11.9-22.3-19.9C1812.6,167.9,1812.7,164.6,1816,163.1L1816,163.1z" class="st1"></path>
		<path d="M1829.6,306.2c-3,0-5.3-0.1-7-0.4c-1.1-0.2-2-0.5-2.8-0.8l-18-8.7h5.8c-11.8-9.5-29.2-25.4-45-42.6
			c-21.6-23.6-46.4-56.5-42.2-79.5c5.1-27.7,120.5-101.7,178.2-133.3c10.5-5.8,22.8-4.7,36.4,3.2c37,21.4,78.6,92.7,76,113.7
			c-2.2,17.9-40.7,31.3-103.2,51.7c-19.9,6.5-40.5,13.2-56.9,19.7l0.3,0.4c3.3,4.5,7.4,10.1,10,13.8c3.7-1.1,8.6-2.6,14.2-4.2
			l15.2-4.5c31.2-9.3,78.2-23.4,89.5-26.6c7-2,11,0.6,12.8,2.4c9.2,8.7,0.8,31.1-12.1,61.8l-0.2,0.4c-1.7,4.1-3.2,7.7-4,9.9l-1.1,3
			l-3.1,1C1954.1,292.1,1859.9,306.2,1829.6,306.2z M1823.9,296.6c0.1,0,0.2,0,0.4,0.1c7,1.3,34.9-1.2,71.3-6.1
			c32.5-4.4,62.6-9.7,73-12.7c0.9-2.3,2.2-5.5,3.7-9.1l0.2-0.4c6-14.3,10.5-25.7,13.1-35.1c3.7-13.2,1.6-16.1,1.1-16.5
			c-0.9-0.9-2.9-0.5-4-0.2c-11.2,3.2-58.2,17.2-89.4,26.5l-15.2,4.5c-7.3,2.2-13.3,4-17.3,5.2l-3.1,0.9l-1.9-2.6
			c-2.1-2.9-7.8-10.6-12-16.4l-7.2-9.8l5.4-2.2c17.4-7.2,40.6-14.8,62.9-22.1c25.5-8.3,49.6-16.2,67.9-24
			c24.5-10.5,28.8-17.1,29.1-20.1c1.8-14.4-34.6-83.2-71.5-104.6c-10.7-6.2-19.9-7.2-27.4-3.1C1827.9,90,1733,156.6,1729.5,175.7
			c-2.8,15.1,11.4,40.6,39.9,71.7C1793.7,273.9,1818.8,294.1,1823.9,296.6z M1836.1,195.1l-1.4-0.2c-13.2-2.2-24.1-13.9-26-23.6
			c-1.1-5.6,0.9-10.3,5.4-12.4l0,0c7-3.3,22.1-13.4,38.2-24.2l0.7-0.4c22.5-15.1,45.8-30.7,55.9-34.1l2.2-0.7l1.9,1.3
			c14.3,10,27.4,20.8,27,32.9c-0.2,6.9-4.8,12.9-13.9,18.3c-10.3,6.3-37.6,18.8-59.6,28.9l-2.2,1c-11.3,5.2-21,9.7-26.8,12.6
			L1836.1,195.1z M1818,167.2c-0.2,0.1-0.8,0.4-0.4,2.4c1.2,6,8.8,14,17.1,16c6-2.9,15.2-7.2,25.7-12l2.2-1
			c21.7-10,48.8-22.5,58.7-28.5c6.2-3.7,9.4-7.3,9.5-10.8c0.3-7.9-13.8-18.4-21.1-23.6c-10.3,4.5-33,19.7-51.6,32.2l-0.7,0.5
			C1841,153.3,1825.6,163.6,1818,167.2z" class="st0"></path>
	</g>
	<g>
		<path d="M1324.8,324.4l0.1-0.3v-0.4c0.8-36.3-127.9-106.5-178.7-122.6c-22.2-7-82.9,11.6-180.7,55.6l-2.7,1.2
			c-48.8,21.9-58.7,43.3-58.3,57.4c0.4,17.1,16.1,33.4,43.2,44.6c8.7,3.6,25,13.2,43.9,24.2c34.6,20.3,77.3,45.3,99.8,49.3
			c0.9,0.2,1.8,0.3,2.6,0.4l0.5,0.1l0.5-0.2C1181.1,404.2,1313.8,349,1324.8,324.4L1324.8,324.4z M1218.9,318.3
			c-5.9,8.7-64.2,30.7-114.1,45.4c-10.6-1.1-33.8-12.2-50.9-20.3c-9.8-4.7-18.2-8.7-22.9-10.2c-12.7-4.3-20-10.2-20.2-16.4
			c-0.2-7.3,9.5-15.1,27.5-22l1.4-0.5c58.6-22.5,80.6-25.8,88.7-24.4c0.3,0.1,0.6,0.1,0.8,0.2
			C1157.2,277.2,1217.7,305.3,1218.9,318.3L1218.9,318.3z" class="st1"></path>
		<path d="M1095,438.5l-1.5-0.1c-1-0.1-2-0.3-3-0.5c-23.2-4.2-66.5-29.5-101.2-49.9l-0.2-0.1
			c-18.6-10.9-34.7-20.3-43.1-23.8c-28.7-12-45.5-29.7-46-48.7c-0.7-28.1,32.8-49.1,61-61.7l2.8-1.2c100.1-45,160.3-63.2,183.9-55.7
			c27.4,8.7,73.5,31.5,109.7,54.3c43.1,27,61.6,46.4,68.6,59.7l3.5-7.7v18c0.1,1,0.2,1.9,0.1,2.8l0,1.2l-9.3,21.3v-9.6
			c-13.3,11.5-40.2,26.5-80.3,44.7c-42.2,19.1-95.8,40.3-143.5,56.7L1095,438.5z M1134.9,204.2c-21.1,0-67.4,11.6-167.5,56.6
			l-2.8,1.2c-46.5,20.9-55.9,40.4-55.6,53.1c0.4,15.2,15.1,30,40.3,40.5c9,3.7,25.3,13.3,44.2,24.4l0.2,0.1
			c34.1,20,76.6,44.9,98.3,48.8c0.6,0.1,1.2,0.2,1.8,0.3c99.2-34,215.6-85.6,226.4-106.2c-0.5-14-25.7-37.9-67.9-64.3
			c-40.4-25.3-84.7-46-107.6-53.3C1142.4,204.7,1139.2,204.2,1134.9,204.2z M1105.2,368.4l-0.9-0.1c-11.4-1.2-34-12-52.1-20.6
			l-0.2-0.1c-9.2-4.4-17.9-8.5-22.4-10c-14.8-5-23.1-12.3-23.3-20.6c-0.3-9.6,9.9-18.5,30.5-26.4l1.4-0.5
			c48.3-18.5,78.9-26.8,91.1-24.6c0.4,0.1,0.8,0.2,1.1,0.2c14.4,3.7,36.8,12.7,55.8,22.3c36.2,18.4,37,27.1,37.2,29.9l0,0.4v1.4
			l-0.8,1.2c-8.2,12.1-82.1,37.1-116.6,47.2L1105.2,368.4z M1124.5,274.2c-8.6,0-30,4-83.1,24.4l-1.4,0.5
			c-18.4,7-24.7,13.9-24.6,17.5c0.1,3.2,5.4,8.3,17.1,12.2c5,1.7,13.5,5.7,23.4,10.4l0.2,0.1c15.2,7.3,38,18.1,48.3,19.7
			c52.5-15.5,99.6-34.4,109.2-41.8c-2.3-3.2-10.3-10.3-31.7-21.2c-18.4-9.3-39.9-18-53.7-21.5c-0.1,0-0.3-0.1-0.5-0.1
			C1126.8,274.3,1125.8,274.2,1124.5,274.2z" class="st0"></path>
	</g>
	<g>
		<path d="M638.6,421.5c-7.6,0-34.8,4.7-72.5,11.3c-84.3,14.6-211.6,36.7-245.8,28.1c-7.2-3.4-94.5-85.8-101.3-122.4
			c-1.1-5.7-0.1-9.9,2.8-12.6c3.4-3.2,11.7-13.5,23.1-27.9c25-31.4,66.7-83.9,80.1-86.2c13.8-2.4,49.5-3.4,84-4.4
			c36.3-1.1,70.6-2.1,84.1-4.5l0.5-0.2c26.2-11.6,79.1-61.2,79-82.4v-1.9l-2.1,0c-29-0.6-111.2,7.2-177.2,13.4
			c-42.7,4-79.6,7.5-89.8,7.6c-32.2,0.2-113.7,89-181.2,166.4c-5.9,6.7-10.3,11.8-12.8,14.6c-31.2,34.1-11.8,58.9,23.2,103.8
			l6.8,8.8c17.4,22.5,110.2,100.2,144.2,107.1l0.2,0h0.2c57.8,1,268.1-23.1,369.2-34.7c22.8-2.6,40.6-4.7,50.8-5.8l2.1-0.2l-0.3-1.9
			C701.7,467.5,660.6,421.3,638.6,421.5L638.6,421.5z" class="st1"></path>
		<path d="M287.9,544.6c-1.3,0-2.6,0-3.8,0l-0.6,0l-0.6-0.1c-35.7-7.2-128.8-85.3-147-108.8l-6.8-8.8
			c-35.4-45.4-56.8-72.7-23-109.7c2.5-2.7,7-8,12.7-14.5c102.5-117.6,157.7-167.8,184.6-167.9c10-0.1,46.7-3.5,89.3-7.5l1.2-0.1
			c65.7-6.2,147.6-13.9,176.7-13.4l6.6,0.1v6.4c0.1,14.8-19.4,36.4-31,48c-17.5,17.5-37.4,32.6-50.7,38.6l-0.5,0.2l-1,0.3
			c-13.8,2.5-48.2,3.5-84.5,4.6l-0.3,0c-34.4,1-69.9,2.1-83.4,4.4c-2.1,0.4-9.6,4.1-33,30.7c-15.2,17.3-32,38.4-44.2,53.8
			c-12.7,16-20,25.1-23.5,28.4c-1.7,1.6-2.1,4.4-1.4,8.4C230,372,313.5,451,322,456.5c34,7.9,159-13.7,241.9-28.1l2.7-0.5
			c35.8-6.2,60.4-10.4,70-11l0.1-0.1l1.9,0c11.6-0.1,28,10.5,43.8,28.2c15.5,17.4,26.1,36.7,28.3,51.6l1,6.6l-6.9,0.8
			c-10.5,1.1-29.2,3.3-50.8,5.8C555,521.2,351.1,544.6,287.9,544.6z M284.5,535.4c58.2,1,267.7-23.1,368.5-34.7
			c19.9-2.3,37.3-4.3,48.2-5.5c-2.8-12.7-12.4-29.3-25.6-44.1c-13.3-15-27.4-24.7-36.3-25.2l-0.7,0c-7.2,0-35.1,4.9-70.4,11
			l-2.7,0.5c-89.2,15.4-211.3,36.6-246.3,27.8l-0.4-0.1l-0.4-0.2c-7.4-3.5-96.6-86.8-103.9-125.7c-1.7-9.1,1.3-14.2,4.2-16.8
			c3.2-2.9,11.7-13.7,22.6-27.4c42.9-54,70.3-85.7,82.9-87.9c14.2-2.4,50-3.5,84.7-4.5l0.3,0c35.8-1.1,69.6-2.1,82.9-4.4
			c25.2-11.4,71.6-56.1,75.7-75.5c-0.2,0-0.3,0-0.5,0c-31.1,0-109.2,7.4-172.4,13.4l-1.2,0.1c-42.8,4-79.7,7.5-90.1,7.6
			c-34.3,0.2-138.5,119.8-177.8,164.8c-5.9,6.8-10.3,11.8-12.9,14.6c-27.5,30.1-13.6,50.5,23.4,97.9l6.8,8.8
			C159.9,451.6,251.9,528.5,284.5,535.4z" class="st0"></path>
	</g>
	<g>
		<path d="M2169.8,66.3c-25.9-3.3-91.2,8.4-97.3,35.2c-5.3,19-48.1,209.6-53.1,238.3c-31.2-5.5-131.1-9.8-165.1,2.2
			c-27.5,9.7-122,92.1-132.1,124.1c-1.5,4.9-1.2,8.8,1,11.4c5.3,6.4,19.3,11,37.5,14.3c34.4,6.2,83.8,7.7,117.3,7.9
			c75.6,0.5,148.4-4.5,172.5-9.4l0.4-0.1c16.9-6.9,121.6-382.5,130.3-417C2181.5,70.8,2179.6,67.5,2169.8,66.3L2169.8,66.3z
			 M1886.9,397.4l3.6-2.7c18.2-13.7,99.7-5.6,114.2-2.7c0.9,7.7-8.7,36.6-17.3,54.3c-23.3,7.7-127.4,2.3-148.2-3.1
			c-0.8-0.1-1.6-0.4-1.8-0.8C1835.5,436.1,1870.2,410,1886.9,397.4L1886.9,397.4z" class="st1"></path>
		<path d="M1888.3,504.5c-3.4,0-6.8,0-10.3,0c-34.9-0.2-83.7-1.8-118.1-8c-21.5-3.9-34.6-9.1-40.3-15.9
			c-3.2-3.9-3.8-9.2-1.8-15.7c10.6-33.9,106.1-116.9,134.9-127.1c33.4-11.8,127-8.4,163-3.2c7.6-39.6,47.2-215.6,52.4-234.2
			c4-17.1,26.3-27,44.4-32.2c17.4-5,38.2-7.7,52.8-6.9V61l5.2,0.7c14.1,1.8,15.8,8.3,15.5,12l0,0.4l-0.1,0.4
			c-4.7,18.6-33.8,123.4-62.1,219c-58.1,195.9-66.7,199.4-70.9,201.1l-1.2,0.4C2028.2,499.7,1960.4,504.5,1888.3,504.5z M1932,338.9
			c-30.7,0-60.8,2-76.2,7.4c-26.2,9.3-119.7,90.9-129.2,121.2c-0.7,2.3-1.3,5.4,0.2,7.2c2.8,3.4,11.2,8.5,34.8,12.7
			c33.8,6.1,82,7.6,116.5,7.9c74.6,0.5,146.4-4.4,170.9-9.2c3.8-4.1,17.7-32.6,67-199.3c29.4-99.3,56-195.8,60.6-213.8
			c-0.4-0.4-2-1.5-6.6-2.2l-0.9-0.1c-26.5-3.4-87.2,9.4-92.2,31.7l-0.1,0.2c-5.2,18.8-48.1,209.7-53,237.8l-0.8,4.5l-4.5-0.8
			C2002.5,341.4,1966.8,338.9,1932,338.9z M2048.7,486.4L2048.7,486.4L2048.7,486.4z M1938.3,454.8c-38.9,0-86.1-3.5-100-7
			c-3.5-0.6-4.8-2.5-5.2-4c-1.9-6.2,4.8-15,47.2-47l0,0l7.6-5.7c21.5-16.2,110.3-5,117.9-3.5l3.3,0.6l0.4,3.3
			c1.2,9.7-9.9,40.7-17.8,56.9l-0.8,1.7l-1.8,0.6C1979.9,453.7,1960.5,454.8,1938.3,454.8z M1843.5,439.6
			c25.2,4.7,116.3,9.2,140.7,3c7.7-16.3,14.6-37.6,15.9-46.7c-22.8-3.5-90.8-8.4-106.3,2.2l0,0l-4,3
			C1863.9,420.4,1848.4,433.3,1843.5,439.6z" class="st0"></path>
	</g>
</g>
</svg>
